<?xml version="1.0" standalone="no"?>
<!DOCTYPE svg PUBLIC "-//W3C//DTD SVG 20010904//EN"
 "http://www.w3.org/TR/2001/REC-SVG-20010904/DTD/svg10.dtd">
<svg version="1.0" xmlns="http://www.w3.org/2000/svg"
 width="500.000000pt" height="500.000000pt" viewBox="0 0 500.000000 500.000000"
 preserveAspectRatio="xMidYMid meet">
<metadata>
Created by potrace 1.11, written by Peter Selinger 2001-2013
</metadata>
<g transform="translate(0.000000,500.000000) scale(0.100000,-0.100000)"
fill="#000000" stroke="none">
<path d="M0 2500 l0 -2500 2500 0 2500 0 0 2500 0 2500 -2500 0 -2500 0 0
-2500z m1980 190 l0 -690 58 0 c63 0 105 -16 110 -43 3 -16 -10 -17 -157 -17
l-161 0 -1 53 c-1 28 -4 79 -8 112 l-6 60 -22 -41 c-36 -67 -109 -141 -171
-171 -50 -25 -68 -28 -152 -28 -87 0 -101 3 -161 32 -147 73 -229 229 -229
433 1 196 112 402 253 468 145 68 326 52 440 -39 l37 -30 0 266 0 265 -105 0
c-103 0 -105 0 -105 23 0 13 3 27 7 30 3 4 89 7 190 7 l183 0 0 -690z m1023
194 c25 -9 64 -32 85 -53 37 -36 82 -116 82 -146 0 -28 17 -15 36 27 47 104
173 188 283 188 108 0 217 -71 262 -172 24 -52 24 -59 27 -389 l3 -336 76 -5
c49 -3 78 -10 84 -19 24 -38 17 -39 -237 -39 l-245 0 3 28 c3 25 7 27 54 30
40 2 57 9 75 28 l24 26 0 301 0 302 -26 50 c-88 173 -310 116 -383 -99 -13
-38 -16 -96 -16 -325 l0 -278 67 -6 c63 -5 93 -20 93 -49 0 -4 -108 -8 -241
-8 l-240 0 3 28 c3 25 7 27 57 32 99 10 105 37 98 401 -3 164 -8 256 -17 281
-51 144 -195 163 -311 41 -85 -89 -99 -156 -99 -478 l0 -242 67 -6 c63 -5 93
-20 93 -49 0 -4 -111 -8 -246 -8 l-245 0 3 28 c3 25 7 27 60 32 66 6 86 21 98
76 5 21 10 198 10 392 l0 352 -85 0 -85 0 0 30 0 30 159 0 158 0 6 -67 c4 -38
7 -86 7 -108 l0 -40 24 41 c91 160 234 227 379 178z"/>
<path d="M1501 2839 c-92 -18 -162 -89 -203 -207 -20 -58 -23 -87 -23 -212 0
-122 4 -156 22 -215 42 -134 114 -195 229 -195 76 1 127 24 182 84 74 80 112
199 112 351 0 274 -127 431 -319 394z"/>
</g>
</svg>
